<?xml version="1.0" standalone="no"?><!DOCTYPE svg PUBLIC "-//W3C//DTD SVG 1.1//EN" "http://www.w3.org/Graphics/SVG/1.1/DTD/svg11.dtd"><svg xmlns:xlink="http://www.w3.org/1999/xlink" version="1.1" class="highcharts-root" style="font-family: 'Lucida Grande', 'Lucida Sans Unicode', Arial, Helvetica, sans-serif; font-size: 12px; background-color: rgba(0, 0, 0, 0);" xmlns="http://www.w3.org/2000/svg" width="1200" height="500"><desc>Created with Highcharts 6.2.0</desc><defs><clipPath id="highcharts-5caczd1-1"><rect x="0" y="0" width="1120" height="398" fill="none"></rect></clipPath></defs><rect fill="rgba(255, 255, 255, 0.0)" class="highcharts-background" x="0" y="0" width="1180" height="500" rx="0" ry="0"></rect><rect fill="none" class="highcharts-plot-background" x="50" y="10" width="1120" height="398"></rect><g class="highcharts-grid highcharts-xaxis-grid " data-z-index="1"><path fill="none" stroke-dasharray="none" data-z-index="1" class="highcharts-grid-line" d="M 54.5 10 L 54.5 408" opacity="1"></path><path fill="none" stroke-dasharray="none" data-z-index="1" class="highcharts-grid-line" d="M 144.5 10 L 144.5 408" opacity="1"></path><path fill="none" stroke-dasharray="none" data-z-index="1" class="highcharts-grid-line" d="M 237.5 10 L 237.5 408" opacity="1"></path><path fill="none" stroke-dasharray="none" data-z-index="1" class="highcharts-grid-line" d="M 331.5 10 L 331.5 408" opacity="1"></path><path fill="none" stroke-dasharray="none" data-z-index="1" class="highcharts-grid-line" d="M 415.5 10 L 415.5 408" opacity="1"></path><path fill="none" stroke-dasharray="none" data-z-index="1" class="highcharts-grid-line" d="M 508.5 10 L 508.5 408" opacity="1"></path><path fill="none" stroke-dasharray="none" data-z-index="1" class="highcharts-grid-line" d="M 598.5 10 L 598.5 408" opacity="1"></path><path fill="none" stroke-dasharray="none" data-z-index="1" class="highcharts-grid-line" d="M 692.5 10 L 692.5 408" opacity="1"></path><path fill="none" stroke-dasharray="none" data-z-index="1" class="highcharts-grid-line" d="M 782.5 10 L 782.5 408" opacity="1"></path><path fill="none" stroke-dasharray="none" data-z-index="1" class="highcharts-grid-line" d="M 875.5 10 L 875.5 408" opacity="1"></path><path fill="none" stroke-dasharray="none" data-z-index="1" class="highcharts-grid-line" d="M 968.5 10 L 968.5 408" opacity="1"></path><path fill="none" stroke-dasharray="none" data-z-index="1" class="highcharts-grid-line" d="M 1059.5 10 L 1059.5 408" opacity="1"></path><path fill="none" stroke-dasharray="none" data-z-index="1" class="highcharts-grid-line" d="M 1152.5 10 L 1152.5 408" opacity="1"></path></g><g class="highcharts-grid highcharts-yaxis-grid " data-z-index="1"><path fill="none" stroke="rgba(216,216,216,1)" stroke-width="1" stroke-dasharray="8,3" data-z-index="1" class="highcharts-grid-line" d="M 50 408.5 L 1170 408.5" opacity="1"></path><path fill="none" stroke="rgba(216,216,216,1)" stroke-width="1" stroke-dasharray="8,3" data-z-index="1" class="highcharts-grid-line" d="M 50 342.5 L 1170 342.5" opacity="1"></path><path fill="none" stroke="rgba(216,216,216,1)" stroke-width="1" stroke-dasharray="8,3" data-z-index="1" class="highcharts-grid-line" d="M 50 275.5 L 1170 275.5" opacity="1"></path><path fill="none" stroke="rgba(216,216,216,1)" stroke-width="1" stroke-dasharray="8,3" data-z-index="1" class="highcharts-grid-line" d="M 50 209.5 L 1170 209.5" opacity="1"></path><path fill="none" stroke="rgba(216,216,216,1)" stroke-width="1" stroke-dasharray="8,3" data-z-index="1" class="highcharts-grid-line" d="M 50 143.5 L 1170 143.5" opacity="1"></path><path fill="none" stroke="rgba(216,216,216,1)" stroke-width="1" stroke-dasharray="8,3" data-z-index="1" class="highcharts-grid-line" d="M 50 76.5 L 1170 76.5" opacity="1"></path><path fill="none" stroke="rgba(216,216,216,1)" stroke-width="1" stroke-dasharray="8,3" data-z-index="1" class="highcharts-grid-line" d="M 50 9.5 L 1170 9.5" opacity="1"></path></g><rect fill="none" class="highcharts-plot-border" data-z-index="1" x="50" y="10" width="1120" height="398"></rect><g class="highcharts-axis highcharts-xaxis " data-z-index="2"><path fill="none" class="highcharts-axis-line" data-z-index="7" d="M 50 408 L 1170 408"></path></g><g class="highcharts-axis highcharts-yaxis " data-z-index="2"><path fill="none" class="highcharts-axis-line" data-z-index="7" d="M 50 10 L 50 408"></path></g><g class="highcharts-series-group" data-z-index="3"><g data-z-index="0.1" class="highcharts-series highcharts-series-0 highcharts-line-series " transform="translate(50,10) scale(1 1)" clip-path="url(#highcharts-5caczd1-1)"><path fill="none" d="M 10.980392156863 81.32466666666664 L 13.988718775181 219.89499999999998 L 16.9970453935 175.05366666666666 L 20.005372011818 167.35899999999995 L 23.013698630137 113.56266666666664 L 26.022025248456 128.2886666666667 L 29.030351866774 61.62366666666662 L 32.038678485093 182.48299999999998 L 35.047005103411 387.18766666666664 L 38.05533172173 222.81366666666665 L 41.063658340048 190.70833333333331 L 44.071984958367 22.221666666666636 L 47.080311576685 129.34999999999997 L 50.088638195004 62.61866666666663 L 53.096964813323 116.41499999999996 L 56.105291431641 263.67499999999995 L 59.11361804996 206.89366666666666 L 62.121944668278 147.12733333333333 L 65.130271286597 67.85899999999998 L 68.138597904915 173.59433333333334 L 71.146924523234 49.75 L 74.155251141553 197.209 L 77.163577759871 254.91899999999998 L 80.17190437819 240.92266666666666 L 83.180230996508 184.672 L 86.188557614827 56.84766666666667 L 89.196884233145 99.03566666666666 L 92.205210851464 114.8893333333333 L 95.213537469782 138.03966666666668 L 98.221864088101 256.909 L 101.23019070642 264.1393333333333 L 104.23851732474 183.47799999999995 L 107.24684394306 118.80299999999994 L 110.25517056138 77.80899999999997 L 113.26349717969 91.40733333333333 L 116.27182379801 109.38366666666667 L 119.28015041633 275.416 L 122.28847703465 235.54966666666667 L 125.29680365297 163.0473333333333 L 128.30513027129 67.59366666666665 L 131.31345688961 132.33499999999998 L 134.32178350792 175.518 L 137.33011012624 128.48766666666666 L 140.33843674456 278.46733333333333 L 143.34676336288 235.2843333333333 L 146.3550899812 224.40566666666663 L 149.36341659952 169.0173333333333 L 152.37174321784 162.51666666666665 L 155.38006983615 94.25966666666665 L 158.38839645447 162.78199999999998 L 161.39672307279 247.55599999999998 L 164.40504969111 261.08799999999997 L 167.41337630943 183.74333333333334 L 170.42170292775 114.7566666666666 L 173.43002954607 97.2446666666666 L 176.43835616438 135.18733333333336 L 179.4466827827 72.90033333333332 L 182.45500940102 170.01233333333334 L 185.46333601934 150.24499999999998 L 188.47166263766 306.52633333333335 L 191.47998925598 194.55566666666664 L 194.48831587429 136.58033333333333 L 197.49664249261 64.01166666666666 L 200.50496911093 100.03066666666666 L 203.51329572925 281.784 L 206.52162234757 269.24699999999996 L 209.52994896589 220.492 L 212.53827558421 70.77766666666668 L 215.54660220252 37.08033333333333 L 218.55492882084 59.301999999999964 L 221.56325543916 122.78299999999996 L 224.57158205748 307.32233333333335 L 227.5799086758 277.87033333333335 L 230.58823529412 175.58433333333332 L 233.59656191244 69.91533333333331 L 236.60488853075 141.7543333333333 L 239.61321514907 122.1196666666666 L 242.62154176739 186.463 L 245.62986838571 271.834 L 248.63819500403 280.65633333333335 L 251.64652162235 220.75733333333332 L 254.65484824067 138.57033333333334 L 257.66317485898 152.76566666666665 L 260.6715014773 97.44366666666662 L 263.67982809562 272.23199999999997 L 266.68815471394 260.95533333333333 L 269.69648133226 258.23566666666665 L 272.70480795058 206.42933333333332 L 275.7131345689 57.24566666666664 L 278.72146118721 112.96566666666666 L 281.72978780553 120.26233333333334 L 284.73811442385 168.55299999999997 L 287.74644104217 235.815 L 290.75476766049 211.27166666666668 L 293.76309427881 178.37033333333332 L 296.77142089713 160.6593333333333 L 299.77974751544 89.08566666666667 L 302.78807413376 124.44133333333332 L 305.79640075208 185.73333333333332 L 308.8047273704 250.34199999999998 L 311.81305398872 257.5723333333333 L 314.82138060704 138.96833333333336 L 317.82970722536 127.49266666666665 L 320.83803384367 77.87533333333334 L 323.84636046199 119.26733333333328 L 326.85468708031 165.70066666666662 L 329.86301369863 267.3233333333333 L 332.87134031695 227.39066666666668 L 335.87966693527 192.433 L 338.88799355359 105.33733333333333 L 341.8963201719 110.31233333333336 L 344.90464679022 98.23966666666666 L 347.91297340854 152.43399999999997 L 432.14611872146 181.289 L 444.17942519474 143.41266666666664 L 447.18775181305 181.5543333333333 L 450.19607843137 180.493 L 453.20440504969 168.22133333333332 L 456.21273166801 241.98399999999998 L 459.22105828633 236.27933333333334 L 462.22938490465 193.826 L 465.23771152297 151.10733333333332 L 468.24603814128 159.53166666666664 L 471.2543647596 156.94466666666662 L 474.26269137792 147.9233333333333 L 477.27101799624 222.88 L 480.27934461456 214.05766666666665 L 483.28767123288 207.09266666666664 L 486.2959978512 158.53666666666663 L 489.30432446951 140.42766666666665 L 492.31265108783 137.90699999999998 L 495.32097770615 145.5353333333333 L 498.32930432447 221.08899999999997 L 501.33763094279 213.26166666666666 L 504.34595756111 212.53199999999998 L 507.35428417943 245.63233333333332 L 510.36261079774 145.13733333333334 L 513.37093741606 140.82566666666662 L 516.37926403438 246.959 L 519.3875906527 280.8553333333333 L 522.39591727102 255.98033333333333 L 525.40424388934 247.22433333333333 L 528.41257050766 266.1293333333333 L 531.42089712597 275.81399999999996 L 534.42922374429 240.19299999999998 L 537.43755036261 208.552 L 540.44587698093 260.69 L 543.45420359925 232.1003333333333 L 546.46253021757 194.95366666666666 L 549.47085683589 156.28133333333332 L 552.4791834542 140.42766666666665 L 555.48751007252 133.72799999999995 L 558.49583669084 235.2843333333333 L 561.50416330916 261.41966666666667 L 564.51248992748 209.48066666666665 L 567.5208165458 178.1713333333333 L 570.52914316411 144.80566666666664 L 573.53746978243 144.07599999999996 L 576.54579640075 135.12099999999998 L 579.55412301907 141.82066666666668 L 582.56244963739 235.68233333333333 L 585.57077625571 197.80599999999998 L 588.57910287403 177.90599999999998 L 591.58742949234 129.15099999999995 L 594.59575611066 146.79566666666668 L 597.60408272898 148.05599999999998 L 600.6124093473 125.90066666666661 L 603.62073596562 227.72233333333332 L 606.62906258394 192.10133333333332 L 609.63738920226 180.22766666666666 L 612.64571582057 140.42766666666665 L 615.65404243889 137.9733333333333 L 618.66236905721 131.8706666666667 L 621.67069567553 117.012 L 624.67902229385 214.05766666666665 L 627.68734891217 202.11766666666665 L 630.69567553049 164.90466666666666 L 633.7040021488 121.52266666666662 L 636.71232876712 121.92066666666665 L 639.72065538544 136.0496666666666 L 642.72898200376 151.43899999999996 L 645.73730862208 238.004 L 648.7456352404 178.43666666666664 L 651.75396185872 179.1 L 654.76228847703 114.09333333333336 L 657.77061509535 125.56899999999996 L 660.77894171367 128.48766666666666 L 663.78726833199 136.71299999999997 L 666.79559495031 213.06266666666667 L 669.80392156863 181.22266666666667 L 672.81224818695 174.32399999999998 L 675.82057480526 123.38 L 678.82890142358 128.95199999999994 L 681.8372280419 128.42133333333334 L 684.84555466022 125.76799999999997 L 687.85388127854 213.19533333333334 L 690.86220789686 187.259 L 693.87053451518 166.03233333333333 L 696.87886113349 118.93566666666663 L 699.88718775181 109.44999999999999 L 702.89551437013 106.46499999999997 L 705.90384098845 102.94933333333336 L 708.91216760677 210.60833333333332 L 711.92049422509 170.8083333333333 L 714.92882084341 126.166 L 717.93714746172 154.623 L 720.94547408004 281.8503333333333 L 726.96212731668 271.7676666666666 L 729.970453935 268.7826666666666 L 732.97878055332 267.9866666666667 L 735.98710717164 279.32966666666664 L 738.99543378995 268.053 L 742.00376040827 224.80366666666666 L 745.01208702659 204.174 L 748.02041364491 188.652 L 751.02874026323 247.22433333333333 L 754.03706688155 236.54466666666667 L 757.04539349987 210.4093333333333 L 760.05372011818 154.75566666666663 L 763.0620467365 163.31266666666664 L 766.07037335482 156.08233333333334 L 769.07869997314 185.13633333333328 L 772.08702659146 234.621 L 775.09535320978 214.1903333333333 L 778.1036798281 202.71466666666666 L 781.11200644641 163.18 L 784.12033306473 159.2663333333333 L 787.12865968305 153.2963333333333 L 790.13698630137 226.06399999999996 L 793.14531291969 237.93766666666667 L 796.15363953801 225.86499999999998 L 799.16196615633 266.72633333333334 L 802.17029277464 154.2913333333333 L 805.17861939296 142.35133333333332 L 808.18694601128 147.061 L 811.1952726296 162.185 L 814.20359924792 241.12166666666667 L 817.21192586624 197.93866666666665 L 820.22025248456 187.39166666666665 L 823.22857910287 142.35133333333332 L 826.23690572119 133.1973333333333 L 829.24523233951 132.99833333333328 L 832.25355895783 141.55533333333335 L 835.26188557615 214.522 L 838.27021219447 196.612 L 841.27853881279 193.03 L 844.2868654311 148.65299999999996 L 847.29519204942 134.3913333333333 L 850.30351866774 139.03466666666668 L 853.31184528606 150.17866666666666 L 856.32017190438 226.19666666666666 L 859.3284985227 208.6183333333333 L 862.33682514102 200.32666666666665 L 865.34515175933 148.1223333333333 L 868.35347837765 141.688 L 871.36180499597 150.90833333333333 L 874.37013161429 183.9423333333333 L 898.43674456084 172.06866666666664 L 901.44507117916 221.28799999999998 L 904.45339779748 212.731 L 907.46172441579 177.37533333333334 L 910.47005103411 179.23266666666666 L 913.47837765243 173.9923333333333 L 916.48670427075 179.89599999999996 L 919.49503088907 231.7023333333333 L 922.50335750739 205.16899999999998 L 925.51168412571 204.50566666666666 L 928.52001074402 162.58299999999997 L 931.52833736234 165.03733333333332 L 934.53666398066 160.06233333333333 L 937.54499059898 185.93233333333333 L 940.5533172173 244.37199999999999 L 943.56164383562 219.099 L 946.56997045394 206.56199999999998 L 949.57829707225 174.19133333333332 L 952.58662369057 178.23766666666663 L 955.59495030889 170.87466666666663 L 958.60327692721 169.61433333333332 L 961.61160354553 241.387 L 964.61993016385 212.26666666666665 L 967.62825678216 205.89866666666666 L 970.63658340048 163.57799999999997 L 973.6449100188 168.61933333333334 L 976.65323663712 162.78199999999998 L 979.66156325544 167.8233333333333 L 982.66988987376 224.20666666666665 L 985.67821649208 201.45433333333332 L 988.68654311039 201.12266666666665 L 991.69486972871 153.49533333333332 L 994.70319634703 151.50533333333334 L 997.71152296535 149.78066666666663 L 1000.7198495837 223.477 L 1003.728176202 238.73366666666664 L 1006.7365028203 215.58333333333331 L 1009.7448294386 190.97366666666665 L 1012.7531560569 131.67166666666668 L 1015.7614826753 162.45033333333333 L 1018.7698092936 153.82699999999997 L 1021.7781359119 226.26299999999998 L 1024.7864625302 238.60099999999997 L 1027.7947891485 215.84866666666665 L 1030.8031157669 198.20399999999998 L 1033.8114423852 162.25133333333332 L 1036.8197690035 159.86333333333332 L 1039.8280956218 159.86333333333332 L 1042.8364222401 160.92466666666664 L 1045.8447488584 238.13666666666666 L 1048.8530754768 207.62333333333333 L 1051.8614020951 189.04999999999998 L 1054.8697287134 178.56933333333333 L 1057.8780553317 166.69566666666668 L 1060.88638195 160.32766666666666 L 1063.8947085684 158.33766666666662 L 1066.9030351867 251.73499999999999 L 1069.911361805 216.04766666666666 L 1072.9196884233 195.94866666666664 L 1075.9280150416 150.70933333333332 L 1078.93634166 172.93099999999998 L 1081.9446682783 145.40266666666668 L 1084.9529948966 166.36399999999998 L 1087.9613215149 237.27433333333332 L 1090.9696481332 208.02133333333333 L 1093.9779747515 195.94866666666664 L 1096.9863013699 159.46533333333332 L 1099.9946279882 161.6543333333333 L 1103.0029546065 151.30633333333333 L 1106.0112812248 153.03099999999998 L 1109.0196078431 230.57466666666667" class="highcharts-graph" data-z-index="1" stroke="#792D82" stroke-width="2" stroke-linejoin="round" stroke-linecap="round"></path><path fill="none" d="M 0.9803921568629992 81.32466666666664 L 10.980392156863 81.32466666666664 L 13.988718775181 219.89499999999998 L 16.9970453935 175.05366666666666 L 20.005372011818 167.35899999999995 L 23.013698630137 113.56266666666664 L 26.022025248456 128.2886666666667 L 29.030351866774 61.62366666666662 L 32.038678485093 182.48299999999998 L 35.047005103411 387.18766666666664 L 38.05533172173 222.81366666666665 L 41.063658340048 190.70833333333331 L 44.071984958367 22.221666666666636 L 47.080311576685 129.34999999999997 L 50.088638195004 62.61866666666663 L 53.096964813323 116.41499999999996 L 56.105291431641 263.67499999999995 L 59.11361804996 206.89366666666666 L 62.121944668278 147.12733333333333 L 65.130271286597 67.85899999999998 L 68.138597904915 173.59433333333334 L 71.146924523234 49.75 L 74.155251141553 197.209 L 77.163577759871 254.91899999999998 L 80.17190437819 240.92266666666666 L 83.180230996508 184.672 L 86.188557614827 56.84766666666667 L 89.196884233145 99.03566666666666 L 92.205210851464 114.8893333333333 L 95.213537469782 138.03966666666668 L 98.221864088101 256.909 L 101.23019070642 264.1393333333333 L 104.23851732474 183.47799999999995 L 107.24684394306 118.80299999999994 L 110.25517056138 77.80899999999997 L 113.26349717969 91.40733333333333 L 116.27182379801 109.38366666666667 L 119.28015041633 275.416 L 122.28847703465 235.54966666666667 L 125.29680365297 163.0473333333333 L 128.30513027129 67.59366666666665 L 131.31345688961 132.33499999999998 L 134.32178350792 175.518 L 137.33011012624 128.48766666666666 L 140.33843674456 278.46733333333333 L 143.34676336288 235.2843333333333 L 146.3550899812 224.40566666666663 L 149.36341659952 169.0173333333333 L 152.37174321784 162.51666666666665 L 155.38006983615 94.25966666666665 L 158.38839645447 162.78199999999998 L 161.39672307279 247.55599999999998 L 164.40504969111 261.08799999999997 L 167.41337630943 183.74333333333334 L 170.42170292775 114.7566666666666 L 173.43002954607 97.2446666666666 L 176.43835616438 135.18733333333336 L 179.4466827827 72.90033333333332 L 182.45500940102 170.01233333333334 L 185.46333601934 150.24499999999998 L 188.47166263766 306.52633333333335 L 191.47998925598 194.55566666666664 L 194.48831587429 136.58033333333333 L 197.49664249261 64.01166666666666 L 200.50496911093 100.03066666666666 L 203.51329572925 281.784 L 206.52162234757 269.24699999999996 L 209.52994896589 220.492 L 212.53827558421 70.77766666666668 L 215.54660220252 37.08033333333333 L 218.55492882084 59.301999999999964 L 221.56325543916 122.78299999999996 L 224.57158205748 307.32233333333335 L 227.5799086758 277.87033333333335 L 230.58823529412 175.58433333333332 L 233.59656191244 69.91533333333331 L 236.60488853075 141.7543333333333 L 239.61321514907 122.1196666666666 L 242.62154176739 186.463 L 245.62986838571 271.834 L 248.63819500403 280.65633333333335 L 251.64652162235 220.75733333333332 L 254.65484824067 138.57033333333334 L 257.66317485898 152.76566666666665 L 260.6715014773 97.44366666666662 L 263.67982809562 272.23199999999997 L 266.68815471394 260.95533333333333 L 269.69648133226 258.23566666666665 L 272.70480795058 206.42933333333332 L 275.7131345689 57.24566666666664 L 278.72146118721 112.96566666666666 L 281.72978780553 120.26233333333334 L 284.73811442385 168.55299999999997 L 287.74644104217 235.815 L 290.75476766049 211.27166666666668 L 293.76309427881 178.37033333333332 L 296.77142089713 160.6593333333333 L 299.77974751544 89.08566666666667 L 302.78807413376 124.44133333333332 L 305.79640075208 185.73333333333332 L 308.8047273704 250.34199999999998 L 311.81305398872 257.5723333333333 L 314.82138060704 138.96833333333336 L 317.82970722536 127.49266666666665 L 320.83803384367 77.87533333333334 L 323.84636046199 119.26733333333328 L 326.85468708031 165.70066666666662 L 329.86301369863 267.3233333333333 L 332.87134031695 227.39066666666668 L 335.87966693527 192.433 L 338.88799355359 105.33733333333333 L 341.8963201719 110.31233333333336 L 344.90464679022 98.23966666666666 L 347.91297340854 152.43399999999997 L 432.14611872146 181.289 L 444.17942519474 143.41266666666664 L 447.18775181305 181.5543333333333 L 450.19607843137 180.493 L 453.20440504969 168.22133333333332 L 456.21273166801 241.98399999999998 L 459.22105828633 236.27933333333334 L 462.22938490465 193.826 L 465.23771152297 151.10733333333332 L 468.24603814128 159.53166666666664 L 471.2543647596 156.94466666666662 L 474.26269137792 147.9233333333333 L 477.27101799624 222.88 L 480.27934461456 214.05766666666665 L 483.28767123288 207.09266666666664 L 486.2959978512 158.53666666666663 L 489.30432446951 140.42766666666665 L 492.31265108783 137.90699999999998 L 495.32097770615 145.5353333333333 L 498.32930432447 221.08899999999997 L 501.33763094279 213.26166666666666 L 504.34595756111 212.53199999999998 L 507.35428417943 245.63233333333332 L 510.36261079774 145.13733333333334 L 513.37093741606 140.82566666666662 L 516.37926403438 246.959 L 519.3875906527 280.8553333333333 L 522.39591727102 255.98033333333333 L 525.40424388934 247.22433333333333 L 528.41257050766 266.1293333333333 L 531.42089712597 275.81399999999996 L 534.42922374429 240.19299999999998 L 537.43755036261 208.552 L 540.44587698093 260.69 L 543.45420359925 232.1003333333333 L 546.46253021757 194.95366666666666 L 549.47085683589 156.28133333333332 L 552.4791834542 140.42766666666665 L 555.48751007252 133.72799999999995 L 558.49583669084 235.2843333333333 L 561.50416330916 261.41966666666667 L 564.51248992748 209.48066666666665 L 567.5208165458 178.1713333333333 L 570.52914316411 144.80566666666664 L 573.53746978243 144.07599999999996 L 576.54579640075 135.12099999999998 L 579.55412301907 141.82066666666668 L 582.56244963739 235.68233333333333 L 585.57077625571 197.80599999999998 L 588.57910287403 177.90599999999998 L 591.58742949234 129.15099999999995 L 594.59575611066 146.79566666666668 L 597.60408272898 148.05599999999998 L 600.6124093473 125.90066666666661 L 603.62073596562 227.72233333333332 L 606.62906258394 192.10133333333332 L 609.63738920226 180.22766666666666 L 612.64571582057 140.42766666666665 L 615.65404243889 137.9733333333333 L 618.66236905721 131.8706666666667 L 621.67069567553 117.012 L 624.67902229385 214.05766666666665 L 627.68734891217 202.11766666666665 L 630.69567553049 164.90466666666666 L 633.7040021488 121.52266666666662 L 636.71232876712 121.92066666666665 L 639.72065538544 136.0496666666666 L 642.72898200376 151.43899999999996 L 645.73730862208 238.004 L 648.7456352404 178.43666666666664 L 651.75396185872 179.1 L 654.76228847703 114.09333333333336 L 657.77061509535 125.56899999999996 L 660.77894171367 128.48766666666666 L 663.78726833199 136.71299999999997 L 666.79559495031 213.06266666666667 L 669.80392156863 181.22266666666667 L 672.81224818695 174.32399999999998 L 675.82057480526 123.38 L 678.82890142358 128.95199999999994 L 681.8372280419 128.42133333333334 L 684.84555466022 125.76799999999997 L 687.85388127854 213.19533333333334 L 690.86220789686 187.259 L 693.87053451518 166.03233333333333 L 696.87886113349 118.93566666666663 L 699.88718775181 109.44999999999999 L 702.89551437013 106.46499999999997 L 705.90384098845 102.94933333333336 L 708.91216760677 210.60833333333332 L 711.92049422509 170.8083333333333 L 714.92882084341 126.166 L 717.93714746172 154.623 L 720.94547408004 281.8503333333333 L 726.96212731668 271.7676666666666 L 729.970453935 268.7826666666666 L 732.97878055332 267.9866666666667 L 735.98710717164 279.32966666666664 L 738.99543378995 268.053 L 742.00376040827 224.80366666666666 L 745.01208702659 204.174 L 748.02041364491 188.652 L 751.02874026323 247.22433333333333 L 754.03706688155 236.54466666666667 L 757.04539349987 210.4093333333333 L 760.05372011818 154.75566666666663 L 763.0620467365 163.31266666666664 L 766.07037335482 156.08233333333334 L 769.07869997314 185.13633333333328 L 772.08702659146 234.621 L 775.09535320978 214.1903333333333 L 778.1036798281 202.71466666666666 L 781.11200644641 163.18 L 784.12033306473 159.2663333333333 L 787.12865968305 153.2963333333333 L 790.13698630137 226.06399999999996 L 793.14531291969 237.93766666666667 L 796.15363953801 225.86499999999998 L 799.16196615633 266.72633333333334 L 802.17029277464 154.2913333333333 L 805.17861939296 142.35133333333332 L 808.18694601128 147.061 L 811.1952726296 162.185 L 814.20359924792 241.12166666666667 L 817.21192586624 197.93866666666665 L 820.22025248456 187.39166666666665 L 823.22857910287 142.35133333333332 L 826.23690572119 133.1973333333333 L 829.24523233951 132.99833333333328 L 832.25355895783 141.55533333333335 L 835.26188557615 214.522 L 838.27021219447 196.612 L 841.27853881279 193.03 L 844.2868654311 148.65299999999996 L 847.29519204942 134.3913333333333 L 850.30351866774 139.03466666666668 L 853.31184528606 150.17866666666666 L 856.32017190438 226.19666666666666 L 859.3284985227 208.6183333333333 L 862.33682514102 200.32666666666665 L 865.34515175933 148.1223333333333 L 868.35347837765 141.688 L 871.36180499597 150.90833333333333 L 874.37013161429 183.9423333333333 L 898.43674456084 172.06866666666664 L 901.44507117916 221.28799999999998 L 904.45339779748 212.731 L 907.46172441579 177.37533333333334 L 910.47005103411 179.23266666666666 L 913.47837765243 173.9923333333333 L 916.48670427075 179.89599999999996 L 919.49503088907 231.7023333333333 L 922.50335750739 205.16899999999998 L 925.51168412571 204.50566666666666 L 928.52001074402 162.58299999999997 L 931.52833736234 165.03733333333332 L 934.53666398066 160.06233333333333 L 937.54499059898 185.93233333333333 L 940.5533172173 244.37199999999999 L 943.56164383562 219.099 L 946.56997045394 206.56199999999998 L 949.57829707225 174.19133333333332 L 952.58662369057 178.23766666666663 L 955.59495030889 170.87466666666663 L 958.60327692721 169.61433333333332 L 961.61160354553 241.387 L 964.61993016385 212.26666666666665 L 967.62825678216 205.89866666666666 L 970.63658340048 163.57799999999997 L 973.6449100188 168.61933333333334 L 976.65323663712 162.78199999999998 L 979.66156325544 167.8233333333333 L 982.66988987376 224.20666666666665 L 985.67821649208 201.45433333333332 L 988.68654311039 201.12266666666665 L 991.69486972871 153.49533333333332 L 994.70319634703 151.50533333333334 L 997.71152296535 149.78066666666663 L 1000.7198495837 223.477 L 1003.728176202 238.73366666666664 L 1006.7365028203 215.58333333333331 L 1009.7448294386 190.97366666666665 L 1012.7531560569 131.67166666666668 L 1015.7614826753 162.45033333333333 L 1018.7698092936 153.82699999999997 L 1021.7781359119 226.26299999999998 L 1024.7864625302 238.60099999999997 L 1027.7947891485 215.84866666666665 L 1030.8031157669 198.20399999999998 L 1033.8114423852 162.25133333333332 L 1036.8197690035 159.86333333333332 L 1039.8280956218 159.86333333333332 L 1042.8364222401 160.92466666666664 L 1045.8447488584 238.13666666666666 L 1048.8530754768 207.62333333333333 L 1051.8614020951 189.04999999999998 L 1054.8697287134 178.56933333333333 L 1057.8780553317 166.69566666666668 L 1060.88638195 160.32766666666666 L 1063.8947085684 158.33766666666662 L 1066.9030351867 251.73499999999999 L 1069.911361805 216.04766666666666 L 1072.9196884233 195.94866666666664 L 1075.9280150416 150.70933333333332 L 1078.93634166 172.93099999999998 L 1081.9446682783 145.40266666666668 L 1084.9529948966 166.36399999999998 L 1087.9613215149 237.27433333333332 L 1090.9696481332 208.02133333333333 L 1093.9779747515 195.94866666666664 L 1096.9863013699 159.46533333333332 L 1099.9946279882 161.6543333333333 L 1103.0029546065 151.30633333333333 L 1106.0112812248 153.03099999999998 L 1109.0196078431 230.57466666666667 L 1119.0196078431 230.57466666666667" stroke-linejoin="round" stroke="rgba(192,192,192,0.0001)" stroke-width="22" visibility="visible" data-z-index="2" class="highcharts-tracker-line"></path></g><g data-z-index="0.1" class="highcharts-markers highcharts-series-0 highcharts-line-series highcharts-tracker" transform="translate(50,10) scale(1 1)" clip-path="none"></g></g><text x="590" text-anchor="middle" class="highcharts-title" data-z-index="4" style="color:#333333;font-size:18px;fill:#333333;" y="24"></text><text x="590" text-anchor="middle" class="highcharts-subtitle" data-z-index="4" style="color:#666666;fill:#666666;" y="24"></text><g class="highcharts-legend" data-z-index="7" transform="translate(327,452)"><rect fill="none" class="highcharts-legend-box" rx="0" ry="0" x="0" y="0" width="526" height="33" visibility="visible"></rect><g data-z-index="1"><g><g class="highcharts-legend-item highcharts-line-series highcharts-color-undefined highcharts-series-0" data-z-index="1" transform="translate(8,3)"><path fill="none" d="M 0 16 L 22 16" class="highcharts-graph" stroke="#792D82" stroke-width="14"></path><text x="27" style="color:#7c7c7c;font-size:18px;font-weight:bold;cursor:pointer;fill:#7c7c7c;" text-anchor="start" data-z-index="2" y="21"><tspan>Traffic Congestion Index: Average: Egypt: Cairo</tspan></text></g></g></g></g><g class="highcharts-axis-labels highcharts-xaxis-labels " data-z-index="7"><text x="54.963738920226" style="color:rgb(112, 112, 112);cursor:default;font-size:20px;fill:rgb(112, 112, 112);" text-anchor="middle" transform="translate(0,0)" y="434" opacity="1"><tspan>Nov '22</tspan></text><text x="145.21353746978" style="color:rgb(112, 112, 112);cursor:default;font-size:20px;fill:rgb(112, 112, 112);" text-anchor="middle" transform="translate(0,0)" y="434" opacity="1"><tspan>Dec '22</tspan></text><text x="238.47166263766" style="color:rgb(112, 112, 112);cursor:default;font-size:20px;fill:rgb(112, 112, 112);" text-anchor="middle" transform="translate(0,0)" y="434" opacity="1"><tspan>Jan '23</tspan></text><text x="331.72978780553" style="color:rgb(112, 112, 112);cursor:default;font-size:20px;fill:rgb(112, 112, 112);" text-anchor="middle" transform="translate(0,0)" y="434" opacity="1"><tspan>Feb '23</tspan></text><text x="415.96293311845" style="color:rgb(112, 112, 112);cursor:default;font-size:20px;fill:rgb(112, 112, 112);" text-anchor="middle" transform="translate(0,0)" y="434" opacity="1"><tspan>Mar '23</tspan></text><text x="509.22105828633" style="color:rgb(112, 112, 112);cursor:default;font-size:20px;fill:rgb(112, 112, 112);" text-anchor="middle" transform="translate(0,0)" y="434" opacity="1"><tspan>Apr '23</tspan></text><text x="599.47085683589" style="color:rgb(112, 112, 112);cursor:default;font-size:20px;fill:rgb(112, 112, 112);" text-anchor="middle" transform="translate(0,0)" y="434" opacity="1"><tspan>May '23</tspan></text><text x="692.72898200376" style="color:rgb(112, 112, 112);cursor:default;font-size:20px;fill:rgb(112, 112, 112);" text-anchor="middle" transform="translate(0,0)" y="434" opacity="1"><tspan>Jun '23</tspan></text><text x="782.97878055332" style="color:rgb(112, 112, 112);cursor:default;font-size:20px;fill:rgb(112, 112, 112);" text-anchor="middle" transform="translate(0,0)" y="434" opacity="1"><tspan>Jul '23</tspan></text><text x="876.23690572119" style="color:rgb(112, 112, 112);cursor:default;font-size:20px;fill:rgb(112, 112, 112);" text-anchor="middle" transform="translate(0,0)" y="434" opacity="1"><tspan>Aug '23</tspan></text><text x="969.49503088907" style="color:rgb(112, 112, 112);cursor:default;font-size:20px;fill:rgb(112, 112, 112);" text-anchor="middle" transform="translate(0,0)" y="434" opacity="1"><tspan>Sep '23</tspan></text><text x="1059.7448294386" style="color:rgb(112, 112, 112);cursor:default;font-size:20px;fill:rgb(112, 112, 112);" text-anchor="middle" transform="translate(0,0)" y="434" opacity="1"><tspan>Oct '23</tspan></text><text x="1153.0029546065" style="color:rgb(112, 112, 112);cursor:default;font-size:20px;fill:rgb(112, 112, 112);" text-anchor="middle" transform="translate(0,0)" y="434" opacity="1"><tspan>Nov '23</tspan></text></g><g class="highcharts-axis-labels highcharts-yaxis-labels " data-z-index="7"><text x="35" style="color:rgb(112, 112, 112);cursor:default;font-size:20px;fill:rgb(112, 112, 112);" text-anchor="end" transform="translate(0,0)" y="414" opacity="1">0</text><text x="35" style="color:rgb(112, 112, 112);cursor:default;font-size:20px;fill:rgb(112, 112, 112);" text-anchor="end" transform="translate(0,0)" y="348" opacity="1">10</text><text x="35" style="color:rgb(112, 112, 112);cursor:default;font-size:20px;fill:rgb(112, 112, 112);" text-anchor="end" transform="translate(0,0)" y="281" opacity="1">20</text><text x="35" style="color:rgb(112, 112, 112);cursor:default;font-size:20px;fill:rgb(112, 112, 112);" text-anchor="end" transform="translate(0,0)" y="215" opacity="1">30</text><text x="35" style="color:rgb(112, 112, 112);cursor:default;font-size:20px;fill:rgb(112, 112, 112);" text-anchor="end" transform="translate(0,0)" y="149" opacity="1">40</text><text x="35" style="color:rgb(112, 112, 112);cursor:default;font-size:20px;fill:rgb(112, 112, 112);" text-anchor="end" transform="translate(0,0)" y="82" opacity="1">50</text><text x="35" style="color:rgb(112, 112, 112);cursor:default;font-size:20px;fill:rgb(112, 112, 112);" text-anchor="end" transform="translate(0,0)" y="16" opacity="1">60</text></g><text x="1170" class="highcharts-credits" text-anchor="end" data-z-index="8" style="cursor:pointer;color:#999999;font-size:12px;fill:#999999;" y="495"><tspan>SOURCE: WWW.CEICDATA.COM | CEIC Data</tspan></text></svg>